<mxfile host="Electron" agent="Mozilla/5.0 (Windows NT 10.0; Win64; x64) AppleWebKit/537.36 (KHTML, like Gecko) draw.io/26.1.1 Chrome/132.0.6834.210 Electron/34.3.3 Safari/537.36" version="26.1.1">
  <diagram name="Страница — 1" id="6svobiZWwARCxcqfRqoL">
    <mxGraphModel dx="1098" dy="820" grid="1" gridSize="10" guides="1" tooltips="1" connect="1" arrows="1" fold="1" page="1" pageScale="1" pageWidth="827" pageHeight="1169" math="0" shadow="0">
      <root>
        <mxCell id="0" />
        <mxCell id="1" parent="0" />
        <mxCell id="XL09CNilMj9xsobEOFTG-1" value="Декомпозиция на слои" style="swimlane;fontStyle=1;align=center;verticalAlign=top;childLayout=stackLayout;horizontal=1;startSize=26;horizontalStack=0;resizeParent=1;resizeParentMax=0;resizeLast=0;collapsible=1;marginBottom=0;whiteSpace=wrap;html=1;" vertex="1" parent="1">
          <mxGeometry x="40" y="220" width="340" height="590" as="geometry" />
        </mxCell>
        <mxCell id="XL09CNilMj9xsobEOFTG-2" value="Presentation&lt;div&gt;&lt;br&gt;&lt;/div&gt;" style="text;strokeColor=none;fillColor=none;align=left;verticalAlign=top;spacingLeft=4;spacingRight=4;overflow=hidden;rotatable=0;points=[[0,0.5],[1,0.5]];portConstraint=eastwest;whiteSpace=wrap;html=1;" vertex="1" parent="XL09CNilMj9xsobEOFTG-1">
          <mxGeometry y="26" width="340" height="34" as="geometry" />
        </mxCell>
        <mxCell id="XL09CNilMj9xsobEOFTG-19" value="InternshipListActivity (UI - список)" style="html=1;whiteSpace=wrap;fillColor=#f8cecc;strokeColor=#b85450;" vertex="1" parent="XL09CNilMj9xsobEOFTG-1">
          <mxGeometry y="60" width="340" height="30" as="geometry" />
        </mxCell>
        <mxCell id="XL09CNilMj9xsobEOFTG-20" value="InternshipDetailActivity (UI - детали)" style="html=1;whiteSpace=wrap;fillColor=#f8cecc;strokeColor=#b85450;" vertex="1" parent="XL09CNilMj9xsobEOFTG-1">
          <mxGeometry y="90" width="340" height="30" as="geometry" />
        </mxCell>
        <mxCell id="XL09CNilMj9xsobEOFTG-12" value="ViewModels" style="html=1;whiteSpace=wrap;fillColor=#f8cecc;strokeColor=#b85450;" vertex="1" parent="XL09CNilMj9xsobEOFTG-1">
          <mxGeometry y="120" width="340" height="30" as="geometry" />
        </mxCell>
        <mxCell id="XL09CNilMj9xsobEOFTG-21" value="Обработка нажатий, отображение данных" style="html=1;whiteSpace=wrap;fillColor=#f8cecc;strokeColor=#b85450;" vertex="1" parent="XL09CNilMj9xsobEOFTG-1">
          <mxGeometry y="150" width="340" height="30" as="geometry" />
        </mxCell>
        <mxCell id="XL09CNilMj9xsobEOFTG-3" value="" style="line;strokeWidth=1;fillColor=none;align=left;verticalAlign=middle;spacingTop=-1;spacingLeft=3;spacingRight=3;rotatable=0;labelPosition=right;points=[];portConstraint=eastwest;strokeColor=inherit;" vertex="1" parent="XL09CNilMj9xsobEOFTG-1">
          <mxGeometry y="180" width="340" height="8" as="geometry" />
        </mxCell>
        <mxCell id="XL09CNilMj9xsobEOFTG-4" value="Domain Layer" style="text;align=left;verticalAlign=top;spacingLeft=4;spacingRight=4;overflow=hidden;rotatable=0;points=[[0,0.5],[1,0.5]];portConstraint=eastwest;whiteSpace=wrap;html=1;" vertex="1" parent="XL09CNilMj9xsobEOFTG-1">
          <mxGeometry y="188" width="340" height="50" as="geometry" />
        </mxCell>
        <mxCell id="XL09CNilMj9xsobEOFTG-24" value="GetInternshipUseCase" style="ellipse;whiteSpace=wrap;html=1;fillColor=#d5e8d4;strokeColor=#82b366;" vertex="1" parent="XL09CNilMj9xsobEOFTG-1">
          <mxGeometry y="238" width="340" height="42" as="geometry" />
        </mxCell>
        <mxCell id="XL09CNilMj9xsobEOFTG-26" value="FetchInternshipsFromAPIUseCase" style="ellipse;whiteSpace=wrap;html=1;fillColor=#d5e8d4;strokeColor=#82b366;" vertex="1" parent="XL09CNilMj9xsobEOFTG-1">
          <mxGeometry y="280" width="340" height="40" as="geometry" />
        </mxCell>
        <mxCell id="XL09CNilMj9xsobEOFTG-25" value="AnalyzeResumeImageUseCase" style="ellipse;whiteSpace=wrap;html=1;fillColor=#d5e8d4;strokeColor=#82b366;" vertex="1" parent="XL09CNilMj9xsobEOFTG-1">
          <mxGeometry y="320" width="340" height="40" as="geometry" />
        </mxCell>
        <mxCell id="XL09CNilMj9xsobEOFTG-27" value="Entities (Internship, User)" style="html=1;whiteSpace=wrap;fillColor=#d5e8d4;strokeColor=#82b366;" vertex="1" parent="XL09CNilMj9xsobEOFTG-1">
          <mxGeometry y="360" width="340" height="30" as="geometry" />
        </mxCell>
        <mxCell id="XL09CNilMj9xsobEOFTG-28" value="Интерфейсы репозиториев" style="html=1;whiteSpace=wrap;fillColor=#d5e8d4;strokeColor=#82b366;" vertex="1" parent="XL09CNilMj9xsobEOFTG-1">
          <mxGeometry y="390" width="340" height="30" as="geometry" />
        </mxCell>
        <mxCell id="XL09CNilMj9xsobEOFTG-23" value="Data Layer" style="text;strokeColor=default;fillColor=none;align=left;verticalAlign=top;spacingLeft=4;spacingRight=4;overflow=hidden;rotatable=0;points=[[0,0.5],[1,0.5]];portConstraint=eastwest;whiteSpace=wrap;html=1;" vertex="1" parent="XL09CNilMj9xsobEOFTG-1">
          <mxGeometry y="420" width="340" height="50" as="geometry" />
        </mxCell>
        <mxCell id="XL09CNilMj9xsobEOFTG-29" value="InternshipRepositoryImpl (работа с API)" style="html=1;whiteSpace=wrap;fillColor=#dae8fc;strokeColor=#6c8ebf;" vertex="1" parent="XL09CNilMj9xsobEOFTG-1">
          <mxGeometry y="470" width="340" height="30" as="geometry" />
        </mxCell>
        <mxCell id="XL09CNilMj9xsobEOFTG-30" value="SharedPreferencesStorage (локальное хранилище)" style="html=1;whiteSpace=wrap;fillColor=#dae8fc;strokeColor=#6c8ebf;" vertex="1" parent="XL09CNilMj9xsobEOFTG-1">
          <mxGeometry y="500" width="340" height="30" as="geometry" />
        </mxCell>
        <mxCell id="XL09CNilMj9xsobEOFTG-31" value="RetrofitClient (REST API)" style="html=1;whiteSpace=wrap;fillColor=#dae8fc;strokeColor=#6c8ebf;" vertex="1" parent="XL09CNilMj9xsobEOFTG-1">
          <mxGeometry y="530" width="340" height="30" as="geometry" />
        </mxCell>
        <mxCell id="XL09CNilMj9xsobEOFTG-32" value="TensorFlow Lite (OCR для резюме)" style="html=1;whiteSpace=wrap;fillColor=#dae8fc;strokeColor=#6c8ebf;" vertex="1" parent="XL09CNilMj9xsobEOFTG-1">
          <mxGeometry y="560" width="340" height="30" as="geometry" />
        </mxCell>
      </root>
    </mxGraphModel>
  </diagram>
</mxfile>
